#N canvas 58 97 1495 935 10;
#X obj 427 766 s oscOut, f 9;
#X msg 235 612 /oled/gLine 0 \$1 \$2 \$3 \$4 1;
#X msg 438 215 /oled/gClear 0 1;
#X msg 82 610 /oled/gFlip 0 1;
#X msg 424 614 /oled/gLine 0 \$1 \$2 \$3 \$4 1;
#X msg 682 668 /oled/gLine 0 \$1 \$2 \$3 \$4 1;
#X obj 681 640 pack 0 10 0 0, f 20;
#X msg 959 734 /oled/gLine 0 \$1 \$2 \$3 \$4 1;
#X obj 399 175 t b b b;
#X obj 261 532 / 100;
#X obj 261 553 i;
#X obj 234 584 pack 0 63 0 10, f 20;
#X obj 234 487 t b b;
#X obj 408 535 / 100;
#X obj 408 556 i;
#X obj 463 508 / 100;
#X obj 463 529 i;
#X obj 524 502 / 100;
#X obj 524 523 i;
#X obj 496 559 +;
#X obj 423 586 pack 63 10 0 63, f 20;
#X obj 656 520 / 100;
#X obj 656 551 i;
#X obj 717 520 / 100;
#X obj 717 551 i;
#X obj 689 589 +;
#X obj 579 537 i;
#X obj 435 445 t b b b b;
#X obj 580 512 / 1.86;
#X obj 565 562 + 10;
#X obj 768 551 i;
#X obj 768 520 / 1.86;
#X obj 752 589 + 10;
#X obj 817 520 / 100;
#X obj 817 551 i;
#X obj 871 520 / 100;
#X obj 871 551 i;
#X obj 856 589 +;
#X obj 704 422 t b b b b b b, f 24;
#X obj 856 615 + 30;
#X obj 946 493 / 100;
#X obj 946 514 i;
#X obj 1002 495 / 100;
#X obj 1002 516 i;
#X obj 974 552 +;
#X obj 959 575 + 30;
#X obj 1047 519 i;
#X obj 1048 494 / 1.86;
#X obj 1034 549 + 10;
#X obj 1168 534 / 100;
#X obj 1168 555 i;
#X obj 1225 534 / 100;
#X obj 1225 555 i;
#X obj 1168 576 +;
#X obj 1141 599 +;
#X obj 1096 555 i;
#X obj 1141 618 + 30;
#X obj 1136 479 t b b b;
#X obj 946 444 t b b b b, f 24;
#X obj 1096 534 / 150;
#X obj 438 241 s oscOut, f 9;
#X obj 418 270 t b b b b;
#X obj 346 123 inlet;
#X obj 261 511 v \$1-a;
#X obj 408 514 v \$1-a;
#X obj 463 487 v \$1-a;
#X obj 524 481 v \$1-d;
#X obj 581 491 v \$1-s;
#X obj 656 489 v \$1-a;
#X obj 717 489 v \$1-d;
#X obj 768 489 v \$1-s;
#X obj 817 489 v \$1-a;
#X obj 871 489 v \$1-d;
#X obj 946 472 v \$1-a;
#X obj 1002 474 v \$1-d;
#X obj 1049 473 v \$1-s;
#X obj 1096 513 v \$1-r;
#X obj 1168 513 v \$1-a;
#X obj 1225 513 v \$1-d;
#X obj 959 687 pack 0 10 127 63, f 20;
#X obj 1141 644 clip 0 127;
#X text 1043 704 63 = bottom of screen;
#X text 1208 643 prevents line from wrapping;
#X connect 1 0 0 0;
#X connect 2 0 60 0;
#X connect 3 0 0 0;
#X connect 4 0 0 0;
#X connect 5 0 0 0;
#X connect 6 0 5 0;
#X connect 7 0 0 0;
#X connect 8 0 3 0;
#X connect 8 1 61 0;
#X connect 8 2 2 0;
#X connect 9 0 10 0;
#X connect 10 0 11 2;
#X connect 11 0 1 0;
#X connect 12 0 11 0;
#X connect 12 1 63 0;
#X connect 13 0 14 0;
#X connect 14 0 20 0;
#X connect 15 0 16 0;
#X connect 16 0 19 0;
#X connect 17 0 18 0;
#X connect 18 0 19 1;
#X connect 19 0 20 2;
#X connect 20 0 4 0;
#X connect 21 0 22 0;
#X connect 22 0 25 0;
#X connect 23 0 24 0;
#X connect 24 0 25 1;
#X connect 25 0 6 0;
#X connect 26 0 29 0;
#X connect 27 0 64 0;
#X connect 27 1 65 0;
#X connect 27 2 66 0;
#X connect 27 3 67 0;
#X connect 28 0 26 0;
#X connect 29 0 20 3;
#X connect 30 0 32 0;
#X connect 31 0 30 0;
#X connect 32 0 6 1;
#X connect 32 0 6 3;
#X connect 33 0 34 0;
#X connect 34 0 37 0;
#X connect 35 0 36 0;
#X connect 36 0 37 1;
#X connect 37 0 39 0;
#X connect 38 0 68 0;
#X connect 38 1 69 0;
#X connect 38 2 70 0;
#X connect 38 3 71 0;
#X connect 38 4 72 0;
#X connect 39 0 6 2;
#X connect 40 0 41 0;
#X connect 41 0 44 0;
#X connect 42 0 43 0;
#X connect 43 0 44 1;
#X connect 44 0 45 0;
#X connect 45 0 79 0;
#X connect 46 0 48 0;
#X connect 47 0 46 0;
#X connect 48 0 79 1;
#X connect 49 0 50 0;
#X connect 50 0 53 0;
#X connect 51 0 52 0;
#X connect 52 0 53 1;
#X connect 53 0 54 1;
#X connect 54 0 56 0;
#X connect 55 0 54 0;
#X connect 56 0 80 0;
#X connect 57 0 76 0;
#X connect 57 1 77 0;
#X connect 57 2 78 0;
#X connect 58 0 73 0;
#X connect 58 1 74 0;
#X connect 58 2 75 0;
#X connect 58 3 57 0;
#X connect 59 0 55 0;
#X connect 61 0 12 0;
#X connect 61 1 27 0;
#X connect 61 2 38 0;
#X connect 61 3 58 0;
#X connect 62 0 8 0;
#X connect 63 0 9 0;
#X connect 64 0 13 0;
#X connect 65 0 15 0;
#X connect 66 0 17 0;
#X connect 67 0 28 0;
#X connect 68 0 21 0;
#X connect 69 0 23 0;
#X connect 70 0 31 0;
#X connect 71 0 33 0;
#X connect 72 0 35 0;
#X connect 73 0 40 0;
#X connect 74 0 42 0;
#X connect 75 0 47 0;
#X connect 76 0 59 0;
#X connect 77 0 49 0;
#X connect 78 0 51 0;
#X connect 79 0 7 0;
#X connect 80 0 79 2;
