#N canvas 213 259 1540 726 10;
#X obj 304 186 r notesIn-\$1;
#X obj 304 338 s notesOut-\$1;
#X obj 181 9 r loadbang-\$1;
#X obj 100 214 inlet~ inL-\$1;
#X obj 145 241 inlet~ inR-\$1;
#X obj 101 394 outlet~ outL-\$1;
#X obj 146 359 outlet~ outR-\$1;
#X obj 424 185 r auxIn-\$1;
#X obj 423 208 r expIn-\$1;
#X obj 423 233 r fsIn-\$1;
#X obj 341 90 s aux-led-\$1;
#X obj 181 92 s aux-label-\$1;
#N canvas 145 89 1408 955 synth 1;
#X text 267 567 final gain adjustment;
#X obj 117 285 pack 0 0 0;
#X text 682 20 sample is transposed by keys;
#X obj 839 276 / 44100;
#X floatatom 839 298 5 0 0 0 - - -;
#X obj 788 498 lop~ 5;
#X obj 886 459 lop~ 5;
#X obj 788 421 * 3;
#X obj 788 448 wrap, f 5;
#X obj 788 476 sig~ 0.1;
#X obj 886 437 sig~ 0.1;
#X obj 786 595 osc~;
#X obj 810 623 *~;
#X obj 785 529 *~;
#X obj 885 511 *~;
#X obj 785 563 *~ 10;
#X obj 811 661 +~ 1;
#X obj 117 244 poly 6 1, f 11;
#X obj 117 326 route 1 2 3 4 5 6, f 34;
#X floatatom 725 297 15 0 0 0 - - -;
#X obj 204 568 *~ 0.5;
#X text 728 231 length of sound in seconds and samples;
#X text 681 69 knobs control speed \, speed modulation \, loop start
\, and duration, f 66;
#X obj 139 599 outlet~ outL;
#X obj 249 597 outlet~ outR;
#X obj 807 353 r n_mod-\$1;
#X obj 807 374 / 100;
#X obj 117 170 r notesIn-\$1;
#X obj 798 150 inlet~;
#X obj 938 150 inlet~;
#X obj 10 396 samplervoice \$1;
#X obj 839 254 r dur-\$1;
#X obj 811 691 s~ mod-\$1;
#X obj 124 396 samplervoice \$1;
#X obj 227 396 samplervoice \$1;
#X obj 341 396 samplervoice \$1;
#X obj 465 396 samplervoice \$1;
#X obj 578 396 samplervoice \$1;
#X obj 400 154 r ctrlIn-\$1;
#X obj 445 324 route 1 2 3 4 5 6, f 34;
#N canvas 324 629 450 300 route 0;
#X obj 69 97 unpack 0 0 0;
#X obj 68 68 t l l;
#X obj 68 197 list;
#X obj 139 144 t b;
#X obj 139 123 route 1 0;
#X obj 226 163 unpack 0 0 0;
#X obj 226 194 pack 0 0 0;
#X obj 68 19 inlet msg;
#X obj 68 218 outlet global;
#X obj 226 215 outlet voice;
#X obj 187 162 - 1;
#X connect 0 2 4 0;
#X connect 1 0 0 0;
#X connect 1 1 2 1;
#X connect 1 1 5 0;
#X connect 2 0 8 0;
#X connect 3 0 2 0;
#X connect 4 0 3 0;
#X connect 4 1 3 0;
#X connect 4 2 10 0;
#X connect 5 0 6 1;
#X connect 5 1 6 2;
#X connect 6 0 9 0;
#X connect 7 0 1 0;
#X connect 10 0 6 0;
#X restore 117 206 pd route;
#N canvas 324 629 450 300 route 0;
#X obj 69 97 unpack 0 0 0;
#X obj 68 68 t l l;
#X obj 68 197 list;
#X obj 139 144 t b;
#X obj 139 123 route 1 0;
#X obj 234 171 unpack 0 0 0;
#X obj 234 202 pack 0 0 0;
#X obj 68 19 inlet msg;
#X obj 68 218 outlet global;
#X obj 234 223 outlet voice;
#X obj 190 158 - 1;
#X connect 0 2 4 0;
#X connect 1 0 0 0;
#X connect 1 1 2 1;
#X connect 1 1 5 0;
#X connect 2 0 8 0;
#X connect 3 0 2 0;
#X connect 4 0 3 0;
#X connect 4 1 3 0;
#X connect 4 2 10 0;
#X connect 5 0 6 1;
#X connect 5 1 6 2;
#X connect 6 0 9 0;
#X connect 7 0 1 0;
#X connect 10 0 6 0;
#X restore 400 201 pd route;
#X obj 470 201 unpack 0 0 0;
#X obj 470 222 sel 123;
#X msg 470 243 stop;
#X text 35 14 Pitched sampler with recording functionality;
#X text 681 45 max recording time 20s;
#X text 35 38 based on norisampler with the following updates: - recording
time increased from 2 seconds to 20 seconds - record arm feature (taken
from samplekids) - clear the array before recording while arming;
#N canvas 4 376 1912 668 record-load-sample 0;
#X msg 397 407 bang;
#X msg 549 387 0;
#X obj 620 404 timer;
#X obj 620 434 * 44.1;
#X obj 239 546 *~;
#X obj 412 486 line~;
#X msg 412 440 1 1;
#X msg 469 384 0 2;
#X text 678 506 time length of recording in samples;
#X text 183 -41 records as long as aux button or foot switch are held
down;
#X obj 290 339 delay 2;
#X msg 319 408 stop;
#X obj 1311 560 soundfiler;
#N canvas 4 50 1098 617 (subpatch) 0;
#X array newsample-\$1 960000 float 0;
#X coords 0 1.02 959999 -1.02 200 130 1 0 0;
#X restore 1372 -36 graph;
#X obj 518 247 t b b b b b;
#X obj 620 475 expr if($f1 < 4410 \, 4410 \, $f1);
#X obj 988 600 soundfiler;
#X text 685 531 it must be at least 4410 cause this;
#X text 694 561 is what the player assumes;
#X obj 526 425 s aux-led-\$1;
#X obj 237 7 inlet~ inL;
#X obj 315 8 inlet~ inR;
#X obj 620 522 s dur-\$1;
#X obj 398 590 tabwrite~ newsample-\$1;
#X obj 988 498 list;
#N canvas 338 792 803 448 sampleDir 0;
#X obj 442 163 s rackMsgs;
#X obj 442 84 symbol \$1;
#X obj 370 14 r loadbang-\$1;
#X obj 441 219 symbol \$1;
#X obj 74 387 outlet;
#X obj 245 387 outlet;
#X text 81 25 samples dir bang;
#X obj 76 47 inlet kit;
#X msg 442 138 getsetting mediaDir ./data rackMediaDir-\$1;
#X obj 535 189 r rackMediaDir-\$1;
#X obj 442 186 r rackMediaDir;
#X obj 152 46 inlet slot;
#X obj 80 88 t b f;
#X obj 154 90 t b f;
#X obj 303 86 symbol newsample-\$1;
#X obj 370 39 t b b;
#X obj 233 45 inlet dur;
#X obj 249 276 pack s f f s f;
#X obj 266 131 i;
#X obj 244 328 t b l;
#X obj 303 107 t b s;
#X connect 1 0 8 0;
#X connect 2 0 15 0;
#X connect 3 0 17 0;
#X connect 7 0 12 0;
#X connect 8 0 0 0;
#X connect 9 0 3 0;
#X connect 10 0 3 0;
#X connect 11 0 13 0;
#X connect 12 0 17 0;
#X connect 12 1 17 1;
#X connect 13 0 17 0;
#X connect 13 1 17 2;
#X connect 14 0 20 0;
#X connect 15 0 14 0;
#X connect 15 1 1 0;
#X connect 16 0 18 0;
#X connect 17 0 19 0;
#X connect 18 0 17 4;
#X connect 19 0 4 0;
#X connect 19 1 5 0;
#X connect 20 0 17 0;
#X connect 20 1 17 3;
#X restore 988 445 pd sampleDir;
#X obj 988 367 r s_kit-\$1;
#X obj 1022 388 r s_slot1-\$1;
#X msg 1296 514 write -nframes \$5 \$1/samples/kit-\$2/\$3.wav \$4
;
#X obj 1296 491 list;
#X obj 1057 412 r dur-\$1;
#X obj 1296 443 r rackSavePreset;
#X obj 1296 465 bng 15 250 50 0 empty empty empty 17 7 0 10 -262144
-1 -1;
#X obj 1296 631 print soundfiler;
#X obj 292 364 t b b;
#X msg 988 545 read -resize \$1/samples/kit-\$2/\$3.wav \$4;
#X obj 397 247 t b b b b b b;
#X text 184 -16 max 20 seconds;
#X text 1293 413 saves preset when orac saved;
#X obj 316 72 +~;
#X obj 316 98 /~ 2;
#X obj 614 -207 r auxIn-\$1;
#X obj 625 -185 r fsIn-\$1;
#X obj 614 -152 i;
#X obj 614 -121 change;
#X obj 397 157 peak-trigger;
#X msg 526 358 3;
#X obj 614 29 spigot 1;
#X msg 583 -2 0;
#X obj 614 -89 sel 1;
#X msg 614 -57 1;
#X obj 633 273 s aux-led-\$1;
#X msg 633 240 1;
#X obj 397 202 sel 1;
#X text 418 226 record;
#X text 535 227 stop;
#X obj 691 29 spigot 0;
#X msg 736 -15 1;
#X msg 762 8 0;
#X text 769 -13 allow stop;
#X text 790 12 disallow stop;
#X text 669 -108 trigger once on button down;
#X text 633 -57 record or stop?;
#X obj 710 184 s newsample-\$1;
#X msg 710 154 const 0;
#X text 709 128 first clear the array;
#X obj 748 83 bng 15 250 50 0 empty empty empty 17 7 0 10 -262144 -1
-1;
#X msg 555 -30 1;
#X text 645 219 then blue LED: armed;
#X msg 778 155 resize 960000;
#X obj 614 68 t f b b b;
#X connect 0 0 23 0;
#X connect 1 0 19 0;
#X connect 2 0 3 0;
#X connect 3 0 15 0;
#X connect 4 0 23 0;
#X connect 5 0 4 1;
#X connect 6 0 5 0;
#X connect 7 0 5 0;
#X connect 10 0 34 0;
#X connect 11 0 23 0;
#X connect 14 0 10 0;
#X connect 14 1 7 0;
#X connect 14 2 1 0;
#X connect 14 3 2 1;
#X connect 14 4 67 0;
#X connect 15 0 22 0;
#X connect 16 0 15 0;
#X connect 20 0 4 0;
#X connect 20 0 39 0;
#X connect 21 0 4 0;
#X connect 21 0 39 0;
#X connect 24 0 35 0;
#X connect 25 0 24 0;
#X connect 25 1 24 1;
#X connect 25 1 29 1;
#X connect 26 0 25 0;
#X connect 27 0 25 1;
#X connect 28 0 12 0;
#X connect 28 0 33 0;
#X connect 29 0 28 0;
#X connect 30 0 25 2;
#X connect 31 0 32 0;
#X connect 32 0 29 0;
#X connect 34 0 29 0;
#X connect 34 1 11 0;
#X connect 35 0 16 0;
#X connect 35 0 33 0;
#X connect 36 0 0 0;
#X connect 36 1 6 0;
#X connect 36 2 46 0;
#X connect 36 3 2 0;
#X connect 39 0 40 0;
#X connect 40 0 45 0;
#X connect 41 0 43 0;
#X connect 42 0 43 0;
#X connect 43 0 44 0;
#X connect 44 0 49 0;
#X connect 45 0 53 0;
#X connect 46 0 19 0;
#X connect 47 0 66 0;
#X connect 47 0 70 0;
#X connect 48 0 47 1;
#X connect 49 0 50 0;
#X connect 50 0 47 0;
#X connect 50 0 56 0;
#X connect 52 0 51 0;
#X connect 53 0 36 0;
#X connect 53 0 48 0;
#X connect 53 0 57 0;
#X connect 56 0 14 0;
#X connect 56 0 58 0;
#X connect 57 0 56 1;
#X connect 58 0 56 1;
#X connect 64 0 63 0;
#X connect 67 0 47 1;
#X connect 69 0 63 0;
#X connect 70 0 45 1;
#X connect 70 1 52 0;
#X connect 70 2 69 0;
#X connect 70 3 64 0;
#X restore 798 183 pd record-load-sample \$1;
#N canvas 4 50 1714 779 graphics 0;
#X obj 1025 488 v \$1-a;
#X obj 1100 483 v \$1-d;
#X obj 1191 490 v \$1-s;
#X obj 1261 481 v \$1-r;
#X obj 1234 454 t b f;
#X obj 1164 462 t b f;
#X obj 1073 454 t b f;
#X obj 998 457 t b f;
#X obj 1295 617 spigot;
#X obj 1346 424 r \$0-graphic-enable;
#X obj 1307 532 t f f;
#X obj 1295 570 sel 1;
#X text 1353 530 enable printing and print initial;
#X obj 167 187 sel \$1;
#X obj 205 159 unpack s s;
#X obj 202 52 r activePage;
#X obj 217 250 &&;
#X msg 268 217 1;
#X msg 311 217 0;
#X msg 150 217 1;
#X msg 193 217 0;
#X obj 202 75 t b a;
#X obj 204 133 list;
#X obj 202 98 del 500;
#X obj 217 275 s \$0-graphic-enable;
#X obj 123 392 r oknob1Raw;
#X obj 176 462 r \$0-graphic-enable;
#X obj 123 490 spigot;
#X obj 459 683 s rackMsgs;
#X obj 123 461 / 1023;
#X obj 123 544 symbol \$1;
#X obj 123 578 pack s 2;
#X obj 123 517 t b f;
#X obj 361 465 r \$0-graphic-enable;
#X obj 308 493 spigot;
#X obj 308 464 / 1023;
#X obj 308 547 symbol \$1;
#X obj 308 581 pack s 2;
#X obj 308 520 t b f;
#X obj 551 469 r \$0-graphic-enable;
#X obj 498 497 spigot;
#X obj 498 468 / 1023;
#X obj 498 551 symbol \$1;
#X obj 498 585 pack s 2;
#X obj 498 524 t b f;
#X obj 731 475 r \$0-graphic-enable;
#X obj 678 503 spigot;
#X obj 678 474 / 1023;
#X obj 678 557 symbol \$1;
#X obj 678 591 pack s 2;
#X obj 678 530 t b f;
#X obj 308 396 r oknob2Raw;
#X obj 498 391 r oknob3Raw;
#X obj 678 397 r oknob4Raw;
#X obj 123 416 i;
#X obj 123 440 change -1;
#X obj 308 421 i;
#X obj 308 442 change -1;
#X obj 498 418 i;
#X obj 498 439 change -1;
#X obj 678 421 i;
#X obj 678 442 change -1;
#X text 142 24 enable if we are on the page;
#X text 1108 366 draw the grapic from params;
#X text 381 350 set params from knobs;
#X obj 268 187 sel pg_adsr;
#X obj 1295 649 adsr-print-2 \$1, f 32;
#X msg 123 608 setparam \$1 e_attack \$2;
#X msg 306 611 setparam \$1 e_decay \$2;
#X msg 493 615 setparam \$1 e_sustain \$2;
#X msg 678 621 setparam \$1 e_release \$2;
#X obj 981 391 r e_attack-\$1;
#X obj 1067 410 r e_decay-\$1;
#X obj 1134 424 r e_sustain-\$1;
#X obj 1229 427 r e_release-\$1;
#X connect 4 0 8 0;
#X connect 4 1 3 0;
#X connect 5 0 8 0;
#X connect 5 1 2 0;
#X connect 6 0 8 0;
#X connect 6 1 1 0;
#X connect 7 0 8 0;
#X connect 7 1 0 0;
#X connect 8 0 66 0;
#X connect 9 0 10 0;
#X connect 10 0 11 0;
#X connect 10 1 8 1;
#X connect 11 0 8 0;
#X connect 13 0 19 0;
#X connect 13 1 20 0;
#X connect 14 0 13 0;
#X connect 14 1 65 0;
#X connect 15 0 21 0;
#X connect 16 0 24 0;
#X connect 17 0 16 1;
#X connect 18 0 16 1;
#X connect 19 0 16 0;
#X connect 20 0 16 0;
#X connect 21 0 23 0;
#X connect 21 1 22 1;
#X connect 22 0 14 0;
#X connect 23 0 22 0;
#X connect 25 0 54 0;
#X connect 26 0 27 1;
#X connect 27 0 32 0;
#X connect 29 0 27 0;
#X connect 30 0 31 0;
#X connect 31 0 67 0;
#X connect 32 0 30 0;
#X connect 32 1 31 1;
#X connect 33 0 34 1;
#X connect 34 0 38 0;
#X connect 35 0 34 0;
#X connect 36 0 37 0;
#X connect 37 0 68 0;
#X connect 38 0 36 0;
#X connect 38 1 37 1;
#X connect 39 0 40 1;
#X connect 40 0 44 0;
#X connect 41 0 40 0;
#X connect 42 0 43 0;
#X connect 43 0 69 0;
#X connect 44 0 42 0;
#X connect 44 1 43 1;
#X connect 45 0 46 1;
#X connect 46 0 50 0;
#X connect 47 0 46 0;
#X connect 48 0 49 0;
#X connect 49 0 70 0;
#X connect 50 0 48 0;
#X connect 50 1 49 1;
#X connect 51 0 56 0;
#X connect 52 0 58 0;
#X connect 53 0 60 0;
#X connect 54 0 55 0;
#X connect 55 0 29 0;
#X connect 56 0 57 0;
#X connect 57 0 35 0;
#X connect 58 0 59 0;
#X connect 59 0 41 0;
#X connect 60 0 61 0;
#X connect 61 0 47 0;
#X connect 65 0 17 0;
#X connect 65 1 18 0;
#X connect 67 0 28 0;
#X connect 68 0 28 0;
#X connect 69 0 28 0;
#X connect 70 0 28 0;
#X connect 71 0 7 0;
#X connect 72 0 6 0;
#X connect 73 0 5 0;
#X connect 74 0 4 0;
#X restore 1044 353 pd graphics;
#X text 1042 331 graphics page in here;
#X connect 1 0 18 0;
#X connect 3 0 4 0;
#X connect 5 0 13 0;
#X connect 5 0 13 1;
#X connect 6 0 14 1;
#X connect 6 0 14 0;
#X connect 7 0 8 0;
#X connect 8 0 9 0;
#X connect 9 0 5 0;
#X connect 10 0 6 0;
#X connect 11 0 12 0;
#X connect 12 0 16 0;
#X connect 13 0 15 0;
#X connect 14 0 12 1;
#X connect 15 0 11 0;
#X connect 16 0 32 0;
#X connect 17 0 1 0;
#X connect 17 1 1 1;
#X connect 17 2 1 2;
#X connect 18 0 30 0;
#X connect 18 1 33 0;
#X connect 18 2 34 0;
#X connect 18 3 35 0;
#X connect 18 4 36 0;
#X connect 18 5 37 0;
#X connect 20 0 23 0;
#X connect 20 0 24 0;
#X connect 25 0 26 0;
#X connect 26 0 7 0;
#X connect 26 0 10 0;
#X connect 27 0 40 0;
#X connect 28 0 48 0;
#X connect 29 0 48 1;
#X connect 30 0 20 0;
#X connect 31 0 3 0;
#X connect 31 0 19 0;
#X connect 33 0 20 0;
#X connect 34 0 20 0;
#X connect 35 0 20 0;
#X connect 36 0 20 0;
#X connect 37 0 20 0;
#X connect 38 0 41 0;
#X connect 38 0 42 0;
#X connect 39 0 30 1;
#X connect 39 1 33 1;
#X connect 39 2 34 1;
#X connect 39 3 35 1;
#X connect 39 4 36 1;
#X connect 39 5 37 1;
#X connect 40 0 17 0;
#X connect 40 1 18 0;
#X connect 41 0 30 1;
#X connect 41 0 37 1;
#X connect 41 0 36 1;
#X connect 41 0 35 1;
#X connect 41 0 34 1;
#X connect 41 0 33 1;
#X connect 41 1 39 0;
#X connect 42 0 43 0;
#X connect 43 0 44 0;
#X connect 44 0 17 0;
#X restore 100 302 pd synth;
#X obj 504 193 r ctrlIn-\$1;
#X obj 504 345 s ctrlOut-\$1;
#X msg 181 60 Aux/FS: Arm Recording;
#X msg 341 60 0;
#X connect 2 0 15 0;
#X connect 2 0 16 0;
#X connect 3 0 12 0;
#X connect 4 0 12 1;
#X connect 12 0 5 0;
#X connect 12 1 6 0;
#X connect 15 0 11 0;
#X connect 16 0 10 0;
