#N canvas 4 50 858 632 10;
#X obj 62 156 inlet~;
#X obj 62 418 outlet;
#X obj 62 338 spigot 0;
#X obj 62 360 t b b;
#X msg 147 360 0;
#X obj 253 135 inlet;
#X obj 272 224 t b b b;
#X msg 311 245 stop;
#X msg 291 286 1;
#X obj 107 214 r \$1-\$2-mute-rec;
#X msg 107 235 0;
#X obj 253 196 sel 0 1;
#X msg 253 257 0;
#X obj 387 143 inlet;
#X obj 62 275 threshold~ 0.1 5 0.1 5;
#X msg 387 214 set \$1 5 \$1 5;
#X obj 387 164 clip 0 1;
#X text 64 116 audio;
#X text 253 104 open;
#X text 385 108 percentage;
#X msg 62 392 1;
#X obj 291 265 del 20;
#X text 359 275 delay to avod the 'click' when triggering the record
with the internal mic on (shortened to 20 ms from 350);
#X connect 0 0 14 0;
#X connect 2 0 3 0;
#X connect 3 0 20 0;
#X connect 3 1 4 0;
#X connect 4 0 2 1;
#X connect 4 0 1 0;
#X connect 5 0 11 0;
#X connect 6 1 21 0;
#X connect 6 2 7 0;
#X connect 7 0 21 0;
#X connect 8 0 2 1;
#X connect 9 0 10 0;
#X connect 10 0 2 1;
#X connect 11 0 12 0;
#X connect 11 1 6 0;
#X connect 12 0 2 1;
#X connect 13 0 16 0;
#X connect 14 0 2 0;
#X connect 15 0 14 0;
#X connect 16 0 15 0;
#X connect 20 0 1 0;
#X connect 21 0 8 0;
