#N canvas 21 247 1500 666 10;
#X obj 595 76 inlet ctrl;
#X obj 224 57 inlet notes;
#X obj 595 97 list split 2;
#X obj 278 112 unpack;
#X obj 317 144 sel 0;
#X text 363 139 selects note off messages so we can set decay time
later, f 17;
#X text 53 120 synth voice with waveform change;
#X obj 645 343 t b b;
#X obj 595 139 route 0 2 123;
#X obj 645 205 t b;
#X obj 625 504 c_adsr, f 47;
#X obj 647 443 / 127;
#X obj 647 469 t a a;
#X msg 646 397 0;
#X obj 728 387 r attack-\$1;
#X obj 803 387 r decay-\$1;
#X obj 871 386 r sustain-\$1;
#X obj 951 388 r release-\$1;
#X obj 861 427 - 100;
#X obj 861 448 * -1;
#X obj 278 888 outlet;
#X obj 278 846 pack;
#X obj 624 627 change;
#X obj 624 592 snapshot~;
#X text 297 724 note goes through \, velocity is altered by adsr;
#X obj 696 527 r loadbang-\$1;
#X obj 655 527 bng 15 250 50 0 empty empty empty 17 7 0 10 -262144
-1 -1;
#X obj 651 759 * 127;
#X obj 624 720 t b f;
#X obj 696 563 metro 20;
#X connect 0 0 2 0;
#X connect 1 0 3 0;
#X connect 2 0 8 0;
#X connect 3 0 21 0;
#X connect 3 1 4 0;
#X connect 4 0 7 0;
#X connect 4 1 11 0;
#X connect 7 0 13 0;
#X connect 8 2 9 0;
#X connect 9 0 7 0;
#X connect 10 0 23 0;
#X connect 11 0 12 0;
#X connect 12 0 10 0;
#X connect 12 1 10 1;
#X connect 13 0 11 0;
#X connect 14 0 10 2;
#X connect 15 0 10 3;
#X connect 16 0 18 0;
#X connect 17 0 10 5;
#X connect 18 0 19 0;
#X connect 19 0 10 4;
#X connect 21 0 20 0;
#X connect 22 0 28 0;
#X connect 23 0 22 0;
#X connect 25 0 29 0;
#X connect 26 0 29 0;
#X connect 27 0 21 1;
#X connect 28 0 21 0;
#X connect 28 1 27 0;
#X connect 29 0 23 0;
